<?xml version="1.0" encoding="utf-8"?>
<!-- Generator: Adobe Illustrator 24.2.3, SVG Export Plug-In . SVG Version: 6.00 Build 0)  -->
<svg version="1.1" id="Layer_1" xmlns="http://www.w3.org/2000/svg" xmlns:xlink="http://www.w3.org/1999/xlink" x="0px" y="0px"
	 viewBox="0 0 19 19" style="enable-background:new 0 0 19 19;" xml:space="preserve">
<style type="text/css">
	.st0{opacity:0.4;fill:#FFFFFF;}
</style>
<path class="st0" d="M17,7.5h-5.5V2c0-1.1-0.9-2-2-2c-1.1,0-2,0.9-2,2v5.5H2c-1.1,0-2,0.9-2,2c0,1.1,0.9,2,2,2h5.5V17
	c0,1.1,0.9,2,2,2c1.1,0,2-0.9,2-2v-5.5H17c1.1,0,2-0.9,2-2C19,8.4,18.1,7.5,17,7.5z"/>
</svg>
